<svg xmlns="http://www.w3.org/2000/svg" xmlns:xlink="http://www.w3.org/1999/xlink" width="54.922" height="54.922" viewBox="0 0 54.922 54.922"><defs><style>.a{fill-rule:evenodd;fill:url(#a);}.b{fill:#fff;}</style><linearGradient id="a" x1="0.5" y1="1" x2="0.5" gradientUnits="objectBoundingBox"><stop offset="0" stop-color="#25cf43"/><stop offset="1" stop-color="#61fd7d"/></linearGradient></defs><g transform="translate(-349.978 -240.978)"><g transform="translate(349.978 240.978)"><path class="a" d="M404.9,281.962c0,.3-.009.953-.027,1.457a28.922,28.922,0,0,1-.29,3.548,11.821,11.821,0,0,1-.994,2.973,10.583,10.583,0,0,1-4.659,4.654,11.841,11.841,0,0,1-2.99.995,29.016,29.016,0,0,1-3.521.284c-.5.018-1.156.027-1.456.027l-27.043,0c-.3,0-.953-.009-1.457-.027a28.919,28.919,0,0,1-3.548-.29,11.816,11.816,0,0,1-2.973-.994,10.582,10.582,0,0,1-4.654-4.659,11.841,11.841,0,0,1-.995-2.99,29.013,29.013,0,0,1-.284-3.521c-.018-.5-.027-1.157-.027-1.456l0-27.043c0-.3.009-.953.027-1.457a28.931,28.931,0,0,1,.29-3.548,11.822,11.822,0,0,1,.994-2.973,10.583,10.583,0,0,1,4.659-4.654,11.84,11.84,0,0,1,2.99-.995,29.016,29.016,0,0,1,3.521-.284c.5-.018,1.157-.027,1.456-.027l27.043,0c.3,0,.953.009,1.457.027a28.931,28.931,0,0,1,3.548.29,11.818,11.818,0,0,1,2.973.994,10.583,10.583,0,0,1,4.654,4.659,11.84,11.84,0,0,1,.995,2.99,29.015,29.015,0,0,1,.284,3.521c.018.5.027,1.157.027,1.456Z" transform="translate(-349.978 -240.978)"/></g><path class="b" d="M2.778,29.354a19.579,19.579,0,1,1,16.965,9.8h-.008a19.568,19.568,0,0,1-9.355-2.382L0,39.5Zm8.676,4.229a16.249,16.249,0,0,0,8.282,2.267h.007A16.27,16.27,0,1,0,5.958,28.228l.387.615-1.644,6,6.159-1.615ZM22.937,28.7a28.161,28.161,0,0,1-2.789-1.03c-4.907-2.118-8.112-7.058-8.356-7.384a9.511,9.511,0,0,1-2-5.059,5.484,5.484,0,0,1,1.712-4.08,1.8,1.8,0,0,1,1.3-.612c.326,0,.653,0,.938.017.035,0,.072,0,.11,0,.285,0,.64,0,.991.838.408.979,1.386,3.386,1.508,3.631a.9.9,0,0,1,.041.857,3.335,3.335,0,0,1-.489.816c-.245.286-.514.638-.734.857-.245.244-.5.508-.215,1a14.74,14.74,0,0,0,2.721,3.388,13.363,13.363,0,0,0,3.934,2.427c.489.245.774.2,1.06-.122s1.223-1.428,1.549-1.917.652-.408,1.1-.245,2.853,1.346,3.343,1.591.815.367.937.571a4.087,4.087,0,0,1-.285,2.325c-.408,1.142-2.362,2.185-3.3,2.325a8,8,0,0,1-1.187.094A6.212,6.212,0,0,1,22.937,28.7Z" transform="translate(358.292 248.386)"/></g></svg>